<?xml version="1.0" encoding="UTF-8" standalone="no"?>
<!-- Created with Inkscape (http://www.inkscape.org/) -->

<svg
   xmlns:dc="http://purl.org/dc/elements/1.1/"
   xmlns:cc="http://creativecommons.org/ns#"
   xmlns:rdf="http://www.w3.org/1999/02/22-rdf-syntax-ns#"
   xmlns:svg="http://www.w3.org/2000/svg"
   xmlns="http://www.w3.org/2000/svg"
   xmlns:sodipodi="http://sodipodi.sourceforge.net/DTD/sodipodi-0.dtd"
   xmlns:inkscape="http://www.inkscape.org/namespaces/inkscape"
   width="12.202847cm"
   height="5.5226626cm"
   viewBox="0 0 12.202847 55.226625"
   version="1.1"
   id="svg992"
   inkscape:version="0.92.2 5c3e80d, 2017-08-06"
   sodipodi:docname="logo.svg">
  <defs
     id="defs986" />
  <sodipodi:namedview
     units="cm"
     id="base"
     pagecolor="#ffffff"
     bordercolor="#666666"
     borderopacity="1.0"
     inkscape:pageopacity="0.0"
     inkscape:pageshadow="2"
     inkscape:zoom="0.98994949"
     inkscape:cx="215.35759"
     inkscape:cy="145.12345"
     inkscape:document-units="mm"
     inkscape:current-layer="layer6"
     showgrid="true"
     inkscape:window-width="962"
     inkscape:window-height="862"
     inkscape:window-x="-3"
     inkscape:window-y="0"
     inkscape:window-maximized="0"
     inkscape:snap-global="true"
     inkscape:snap-nodes="true"
     inkscape:snap-bbox="true"
     inkscape:snap-midpoints="true"
     inkscape:snap-smooth-nodes="true"
     inkscape:snap-others="true"
     inkscape:object-paths="true"
     inkscape:snap-intersection-paths="false"
     inkscape:snap-object-midpoints="true"
     fit-margin-top="0"
     fit-margin-left="0"
     fit-margin-right="0"
     fit-margin-bottom="0"
     inkscape:snap-page="true"
     showguides="true"
     inkscape:guide-bbox="true" />
  <metadata
     id="metadata989">
    <rdf:RDF>
      <cc:Work
         rdf:about="">
        <dc:format>image/svg+xml</dc:format>
        <dc:type
           rdf:resource="http://purl.org/dc/dcmitype/StillImage" />
        <dc:title></dc:title>
      </cc:Work>
    </rdf:RDF>
  </metadata>
  <g
     inkscape:groupmode="layer"
     id="layer5"
     inkscape:label="Background"
     style="display:inline"
     sodipodi:insensitive="true">
    <rect
       style="display:inline;opacity:1;fill:#000000;fill-opacity:1;stroke:none;stroke-width:0.13948396;stroke-linecap:round;stroke-linejoin:miter;stroke-miterlimit:4;stroke-dasharray:none"
       id="rect5813"
       width="122.02847"
       height="55.226624"
       x="-54.912807"
       y="1.0172525e-06" />
  </g>
  <g
     inkscape:groupmode="layer"
     id="layer4"
     inkscape:label="Chars"
     style="display:inline"
     transform="translate(2.3514201,1.0142429)">
    <path
       inkscape:connector-curvature="0"
       id="path5773"
       d="m 33.749999,49.999999 -1.847543,3.200038"
       style="fill:none;stroke:#008000;stroke-width:2;stroke-linecap:round;stroke-linejoin:miter;stroke-miterlimit:4;stroke-dasharray:none;stroke-opacity:1" />
    <path
       style="fill:none;stroke:#008000;stroke-width:2;stroke-linecap:round;stroke-linejoin:miter;stroke-miterlimit:4;stroke-dasharray:none;stroke-opacity:1"
       d="M -1.2499998,39.999999 H 8.7499986"
       id="path5745"
       inkscape:connector-curvature="0" />
    <path
       inkscape:connector-curvature="0"
       id="path5741"
       d="m 3.7499998,2.0461128e-8 h -10 V 20 h 10"
       style="fill:none;stroke:#008000;stroke-width:2;stroke-linecap:round;stroke-linejoin:miter;stroke-miterlimit:4;stroke-dasharray:none;stroke-opacity:1" />
    <path
       style="fill:none;stroke:#008000;stroke-width:2;stroke-linecap:round;stroke-linejoin:miter;stroke-miterlimit:4;stroke-dasharray:none;stroke-opacity:1"
       d="m -56.249999,2.0461128e-8 h 10 V 20 h -10"
       id="path5177"
       inkscape:connector-curvature="0" />
    <path
       inkscape:connector-curvature="0"
       id="path5722"
       d="m -36.25,30 h -10 v 19.999999 h 10"
       style="fill:none;stroke:#008000;stroke-width:2;stroke-linecap:round;stroke-linejoin:miter;stroke-miterlimit:4;stroke-dasharray:none;stroke-opacity:1" />
    <path
       inkscape:connector-curvature="0"
       id="path5724"
       d="m -36.25,2.0461128e-8 h 10 V 20 h -10"
       style="fill:none;stroke:#008000;stroke-width:2;stroke-linecap:round;stroke-linejoin:miter;stroke-miterlimit:4;stroke-dasharray:none;stroke-opacity:1" />
    <path
       style="fill:none;stroke:#008000;stroke-width:2;stroke-linecap:round;stroke-linejoin:miter;stroke-miterlimit:4;stroke-dasharray:none;stroke-opacity:1"
       d="m -16.25,30.000001 h -10 V 50 h 10"
       id="path5726"
       inkscape:connector-curvature="0" />
    <path
       style="fill:none;stroke:#008000;stroke-width:2;stroke-linecap:butt;stroke-linejoin:miter;stroke-miterlimit:4;stroke-dasharray:none;stroke-opacity:1"
       d="M -6.2499991,30 -16.25,39.999999 -6.2499991,50"
       id="path5737"
       inkscape:connector-curvature="0" />
    <path
       style="fill:none;stroke:#008000;stroke-width:2;stroke-linecap:round;stroke-linejoin:miter;stroke-miterlimit:4;stroke-dasharray:none;stroke-opacity:1"
       d="m -16.25,20 -1.847543,3.200038"
       id="path5743"
       inkscape:connector-curvature="0" />
    <path
       style="fill:none;stroke:#008000;stroke-width:2;stroke-linecap:round;stroke-linejoin:miter;stroke-miterlimit:4;stroke-dasharray:none;stroke-opacity:1"
       d="M 13.75,30 23.749999,39.999999 13.75,50"
       id="path5753"
       inkscape:connector-curvature="0" />
    <path
       id="path5759"
       style="fill:none;stroke:#008000;stroke-width:2;stroke-linecap:round;stroke-linejoin:miter;stroke-miterlimit:4;stroke-dasharray:none;stroke-opacity:1"
       d="M 23.749999,10 H 3.7499993 M 13.75,2.0461128e-8 V 20"
       inkscape:connector-curvature="0" />
    <path
       style="fill:none;stroke:#008000;stroke-width:2;stroke-linecap:round;stroke-linejoin:miter;stroke-miterlimit:4;stroke-dasharray:none;stroke-opacity:1"
       d="m 43.749998,2.0461128e-8 h -10 V 20 h 10"
       id="path5764"
       inkscape:connector-curvature="0" />
    <path
       d="m 63.749998,10 h -20"
       style="fill:none;stroke:#008000;stroke-width:2;stroke-linecap:round;stroke-linejoin:miter;stroke-miterlimit:4;stroke-dasharray:none;stroke-opacity:1"
       id="path5778"
       inkscape:connector-curvature="0"
       sodipodi:nodetypes="cc" />
    <path
       style="fill:none;stroke:#008000;stroke-width:2;stroke-linecap:round;stroke-linejoin:miter;stroke-miterlimit:4;stroke-dasharray:none;stroke-opacity:1"
       d="m 53.749998,30 h -10 v 19.999999 h 10"
       id="path5780"
       inkscape:connector-curvature="0" />
    <circle
       style="opacity:1;fill:#00ff00;fill-opacity:1;stroke:#008000;stroke-width:0.182;stroke-linecap:round;stroke-linejoin:miter;stroke-miterlimit:4;stroke-dasharray:none"
       id="path5787"
       cx="63.749996"
       cy="50"
       r="0.90909088" />
    <path
       style="fill:none;stroke:#008000;stroke-width:2;stroke-linecap:round;stroke-linejoin:miter;stroke-miterlimit:4;stroke-dasharray:none;stroke-opacity:1"
       d="m -54.409514,49.999995 -1.847543,3.200038"
       id="path6022"
       inkscape:connector-curvature="0" />
  </g>
  <g
     inkscape:groupmode="layer"
     id="layer3"
     inkscape:label="Colors"
     style="display:inline"
     transform="translate(2.3514201,1.0142429)">
    <g
       id="g5884"
       style="stroke:#0000ff">
      <path
         inkscape:connector-curvature="0"
         id="path5728"
         d="m -56.249999,5.6138337e-7 h 10 V 50 h 10"
         style="opacity:1;fill:none;stroke:#0000ff;stroke-width:2;stroke-linecap:round;stroke-linejoin:miter;stroke-miterlimit:4;stroke-dasharray:none;stroke-opacity:1" />
      <path
         style="opacity:1;fill:none;stroke:#0000ff;stroke-width:2;stroke-linecap:round;stroke-linejoin:miter;stroke-miterlimit:4;stroke-dasharray:none;stroke-opacity:1"
         d="m -36.25,5.6138337e-7 h 10 V 50 h 10"
         id="path5730"
         inkscape:connector-curvature="0" />
      <path
         sodipodi:nodetypes="cccccc"
         inkscape:connector-curvature="0"
         id="path5739"
         d="M -6.249999,30 -16.25,39.999999 -6.249999,50 m 0,0 V 5.6138337e-7 h 9.999998"
         style="opacity:1;fill:none;stroke:#0000ff;stroke-width:2;stroke-linecap:round;stroke-linejoin:miter;stroke-miterlimit:4;stroke-dasharray:none;stroke-opacity:1" />
      <path
         style="opacity:1;fill:none;stroke:#0000ff;stroke-width:2;stroke-linecap:round;stroke-linejoin:miter;stroke-miterlimit:4;stroke-dasharray:none;stroke-opacity:1"
         d="M 13.749999,29.999999 23.75,39.999998 13.749999,49.999999 m 0,0 V -4.3861663e-7"
         id="path5762"
         inkscape:connector-curvature="0"
         sodipodi:nodetypes="ccccc" />
      <path
         sodipodi:nodetypes="ccccccc"
         inkscape:connector-curvature="0"
         d="m 33.75,20 h 10.000001 m 0,-19.99999943861663 H 33.75 V 50 l -10e-7,-10e-7 -1.847543,3.200038"
         style="opacity:1;fill:none;stroke:#0000ff;stroke-width:2;stroke-linecap:round;stroke-linejoin:miter;stroke-miterlimit:4;stroke-dasharray:none;stroke-opacity:1"
         id="path5766" />
    </g>
  </g>
  <g
     inkscape:groupmode="layer"
     id="layer6"
     inkscape:label="Blend">
    <path
       style="color:#000000;font-style:normal;font-variant:normal;font-weight:normal;font-stretch:normal;font-size:medium;line-height:normal;font-family:sans-serif;font-variant-ligatures:normal;font-variant-position:normal;font-variant-caps:normal;font-variant-numeric:normal;font-variant-alternates:normal;font-feature-settings:normal;text-indent:0;text-align:start;text-decoration:none;text-decoration-line:none;text-decoration-style:solid;text-decoration-color:#000000;letter-spacing:normal;word-spacing:normal;text-transform:none;writing-mode:lr-tb;direction:ltr;text-orientation:mixed;dominant-baseline:auto;baseline-shift:baseline;text-anchor:start;white-space:normal;shape-padding:0;clip-rule:nonzero;display:inline;overflow:visible;visibility:visible;opacity:1;isolation:auto;mix-blend-mode:normal;color-interpolation:sRGB;color-interpolation-filters:linearRGB;solid-color:#000000;solid-opacity:1;vector-effect:none;fill:#00ffff;fill-opacity:1;fill-rule:nonzero;stroke:none;stroke-width:2;stroke-linecap:round;stroke-linejoin:miter;stroke-miterlimit:4;stroke-dasharray:none;stroke-dashoffset:0;stroke-opacity:1;color-rendering:auto;image-rendering:auto;shape-rendering:auto;text-rendering:auto;enable-background:accumulate"
       d="M 16.086122,1.4251317e-4 A 1.0001,1.0001 0 0 0 15.101687,1.0140345 V 21.0278 a 1.0001,1.0001 0 1 0 1.999361,-0.0145 v -8.999966 h 5.16e-4 v -1.999877 h -5.16e-4 V 1.0134885 a 1.0001,1.0001 0 0 0 -0.07286,-0.39015799 1.0001,1.0001 0 0 0 -5.18e-4,-5.16e-4 1.0001,1.0001 0 0 0 -0.04186,-0.08992 1.0001,1.0001 0 0 0 -5.15e-4,-5.18e-4 1.0001,1.0001 0 0 0 -0.05064,-0.08526 1.0001,1.0001 0 0 0 -5.16e-4,-5.18e-4 1.0001,1.0001 0 0 0 -0.05891,-0.0801 1.0001,1.0001 0 0 0 -5.16e-4,-5.16e-4 1.0001,1.0001 0 0 0 -0.06666,-0.07338 1.0001,1.0001 0 0 0 -5.19e-4,-5.16e-4 1.0001,1.0001 0 0 0 -0.07338,-0.06666 1.0001,1.0001 0 0 0 -5.19e-4,-5.19e-4 1.0001,1.0001 0 0 0 -0.0801,-0.05891 1.0001,1.0001 0 0 0 -5.16e-4,-5.18e-4 1.0001,1.0001 0 0 0 -0.08578,-0.05013 1.0001,1.0001 0 0 0 -5.16e-4,-5.16e-4 1.0001,1.0001 0 0 0 -0.08992,-0.04186 1.0001,1.0001 0 0 0 -5.16e-4,-5.16e-4 1.0001,1.0001 0 0 0 -0.09405,-0.03204 1.0001,1.0001 0 0 0 -0.296106,-0.0403099968 z M -53.898233,0.01409251 a 1.0001,1.0001 0 0 0 -0.965316,1.30999699 1.0001,1.0001 0 0 0 0.03514,0.0925 1.0001,1.0001 0 0 0 5.17e-4,5.16e-4 1.0001,1.0001 0 0 0 0.04444,0.08888 1.0001,1.0001 0 0 0 5.17e-4,5.16e-4 1.0001,1.0001 0 0 0 0.05323,0.08423 1.0001,1.0001 0 0 0 5.17e-4,5.19e-4 1.0001,1.0001 0 0 0 0.06098,0.07803 1.0001,1.0001 0 0 0 5.17e-4,5.16e-4 1.0001,1.0001 0 0 0 0.06873,0.07131 1.0001,1.0001 0 0 0 5.17e-4,5.16e-4 1.0001,1.0001 0 0 0 0.07545,0.0646 1.0001,1.0001 0 0 0 5.16e-4,5.16e-4 1.0001,1.0001 0 0 0 0.08165,0.05633 1.0001,1.0001 0 0 0 0.0708,0.03927 1.0001,1.0001 0 0 0 0.01654,0.0093 1.0001,1.0001 0 0 0 10e-4,5.18e-4 1.0001,1.0001 0 0 0 0.09095,0.03876 1.0001,1.0001 0 0 0 0.362769,0.06253 h 8.999967 v 5.16e-4 h 5.17e-4 V 22.01326 h 1.99936 V 0.01409651 Z m 19.999811,0 a 1.0001,1.0001 0 0 0 -0.964797,1.30999699 1.0001,1.0001 0 0 0 0.03514,0.0925 1.0001,1.0001 0 0 0 5.16e-4,5.16e-4 1.0001,1.0001 0 0 0 0.09767,0.173633 1.0001,1.0001 0 0 0 5.19e-4,5.19e-4 1.0001,1.0001 0 0 0 0.131257,0.150376 1.0001,1.0001 0 0 0 0.07545,0.0646 1.0001,1.0001 0 0 0 5.16e-4,5.16e-4 1.0001,1.0001 0 0 0 0.08165,0.05633 1.0001,1.0001 0 0 0 5.19e-4,5.16e-4 1.0001,1.0001 0 0 0 0.08682,0.04806 1.0001,1.0001 0 0 0 5.16e-4,5.18e-4 1.0001,1.0001 0 0 0 0.09147,0.03876 1.0001,1.0001 0 0 0 0.192751,0.05064 1.0001,1.0001 0 0 0 0.1695,0.01188 h 8.999966 v 5.16e-4 h 5.19e-4 V 22.01327 h 1.999361 V 0.01409651 Z m 29.0002948,0 V 22.01327 h 1.99988 v -1.99988 h -5.19e-4 V 2.0134575 h 8.999969 a 1.0001,1.0001 0 0 0 0.964797,-1.30999699 1.0001,1.0001 0 0 0 -0.03514,-0.0925 1.0001,1.0001 0 0 0 -5.16e-4,-0.001 1.0001,1.0001 0 0 0 -0.09767,-0.173117 1.0001,1.0001 0 0 0 -5.19e-4,-5.16e-4 1.0001,1.0001 0 0 0 -0.130222,-0.149863 1.0001,1.0001 0 0 0 -0.001,-0.001 1.0001,1.0001 0 0 0 -0.07545,-0.06408 1.0001,1.0001 0 0 0 -5.16e-4,-5.16e-4 1.0001,1.0001 0 0 0 -0.08165,-0.05633 1.0001,1.0001 0 0 0 -5.19e-4,-5.19e-4 1.0001,1.0001 0 0 0 -0.08682,-0.04806 1.0001,1.0001 0 0 0 -5.16e-4,-5.15e-4 1.0001,1.0001 0 0 0 -0.09147,-0.03876 1.0001,1.0001 0 0 0 -0.192751,-0.05064 1.0001,1.0001 0 0 0 -0.1695,-0.01188 z m 39.9996222,0 V 20.84435 a 1.0001,1.0001 0 0 0 -5.1e-4,0.005 v 0.32556 a 1.0001,1.0001 0 0 0 5.1e-4,0.004 V 22.014 h 10.99933 a 1.0001,1.0001 0 0 0 0.96532,-1.30948 1.0001,1.0001 0 0 0 -0.0351,-0.093 1.0001,1.0001 0 0 0 -5.2e-4,-5.1e-4 1.0001,1.0001 0 0 0 -0.0444,-0.0889 1.0001,1.0001 0 0 0 -5.2e-4,-5.1e-4 1.0001,1.0001 0 0 0 -0.11472,-0.16279 1.0001,1.0001 0 0 0 -5.2e-4,-5.1e-4 1.0001,1.0001 0 0 0 -0.0687,-0.0713 1.0001,1.0001 0 0 0 -5.1e-4,-5.1e-4 1.0001,1.0001 0 0 0 -0.0755,-0.0646 1.0001,1.0001 0 0 0 -5.2e-4,-5.2e-4 1.0001,1.0001 0 0 0 -0.0816,-0.0563 1.0001,1.0001 0 0 0 -5.1e-4,-5.2e-4 1.0001,1.0001 0 0 0 -0.1788,-0.0873 1.0001,1.0001 0 0 0 -0.0951,-0.03 1.0001,1.0001 0 0 0 -10e-4,-5.2e-4 1.0001,1.0001 0 0 0 -0.26614,-0.032 h -8.99996 v -5.2e-4 h -10e-4 V 2.0134575 h 8.99997 a 1.0001,1.0001 0 0 0 0.96532,-1.30999699 1.0001,1.0001 0 0 0 -0.0351,-0.0925 1.0001,1.0001 0 0 0 -5.2e-4,-0.001 1.0001,1.0001 0 0 0 -0.0444,-0.08837 1.0001,1.0001 0 0 0 -5.2e-4,-5.18e-4 1.0001,1.0001 0 0 0 -0.11472,-0.16278 1.0001,1.0001 0 0 0 -5.2e-4,-5.16e-4 1.0001,1.0001 0 0 0 -0.003,-0.0026 1.0001,1.0001 0 0 0 -0.0661,-0.06873 1.0001,1.0001 0 0 0 -0.076,-0.06511 1.0001,1.0001 0 0 0 -5.2e-4,-5.16e-4 1.0001,1.0001 0 0 0 -0.0816,-0.05633 1.0001,1.0001 0 0 0 -5.1e-4,-5.19e-4 1.0001,1.0001 0 0 0 -0.0868,-0.04806 1.0001,1.0001 0 0 0 -5.2e-4,-5.15e-4 1.0001,1.0001 0 0 0 -0.0915,-0.03876 1.0001,1.0001 0 0 0 -0.36226,-0.06253 z M -3.9183402,30.00348 a 1.0001,1.0001 0 0 0 -0.687814,0.30282 l -0.291973,0.29198 v 0.002 l -10.4143508,10.41435 10.6133068,10.6133 0.09302,0.093 a 1.0001,1.0001 0 0 0 0.605132,0.30024 1.0001,1.0001 0 0 0 0.05167,0.004 1.0001,1.0001 0 0 0 0.02894,0.002 1.0001,1.0001 0 0 0 0.230994,-0.0222 1.0001,1.0001 0 0 0 0.0956,-0.0253 1.0001,1.0001 0 0 0 0.07028,-0.0253 1.0001,1.0001 0 0 0 0.113689,-0.0527 1.0001,1.0001 0 0 0 0.0036,-0.002 1.0001,1.0001 0 0 0 0.0062,-0.004 1.0001,1.0001 0 0 0 0.50178,-0.99994 v -0.0258 a 1.0001,1.0001 0 0 0 -0.293524,-0.56224 l -1.706356,-1.70687 -7.5860978,-7.58558 -5.19e-4,-5.2e-4 9.2929728,-9.29297 a 1.0001,1.0001 0 0 0 0.293524,-0.58705 v -0.003 a 1.0001,1.0001 0 0 0 0.0078,-0.0997 1.0001,1.0001 0 0 0 -0.0021,-0.0971 1.0001,1.0001 0 0 0 0,-0.003 1.0001,1.0001 0 0 0 0,-0.002 1.0001,1.0001 0 0 0 -0.0057,-0.0527 1.0001,1.0001 0 0 0 0,-0.002 1.0001,1.0001 0 0 0 -1.020093,-0.87178 z m 20.0096292,0 a 1.0001,1.0001 0 0 0 -0.989602,0.86403 1.0001,1.0001 0 0 0 -5.19e-4,0.004 1.0001,1.0001 0 0 0 -0.0077,0.0915 1.0001,1.0001 0 0 0 -5.19e-4,0.0155 1.0001,1.0001 0 0 0 10e-4,0.0806 1.0001,1.0001 0 0 0 0.0026,0.0336 1.0001,1.0001 0 0 0 0.0052,0.0512 1.0001,1.0001 0 0 0 0,0.002 1.0001,1.0001 0 0 0 0.292486,0.57568 l 1.707391,1.70739 7.585579,7.58558 5.2e-4,5.2e-4 -7.586099,7.58506 v 5.2e-4 l -1.707391,1.70687 a 1.0001,1.0001 0 0 0 -0.292486,0.55604 v 0.0243 a 1.0001,1.0001 0 0 0 0.591693,1.05265 1.0001,1.0001 0 0 0 0.130741,0.0491 1.0001,1.0001 0 0 0 0.294039,0.0382 1.0001,1.0001 0 0 0 0.0026,0 1.0001,1.0001 0 0 0 0.687298,-0.30644 L 27.514885,41.01366 17.101564,30.59983 16.808043,30.3063 a 1.0001,1.0001 0 0 0 -0.716754,-0.30282 z m -60.989555,0.0103 v 21.99969 h 10.999328 a 1.0001,1.0001 0 0 0 0.481108,-0.11524 1.0001,1.0001 0 0 0 5.16e-4,0 1.0001,1.0001 0 0 0 0.403593,-1.37665 1.0001,1.0001 0 0 0 -5.16e-4,-5.2e-4 1.0001,1.0001 0 0 0 -0.114723,-0.16278 1.0001,1.0001 0 0 0 -5.16e-4,-5.2e-4 1.0001,1.0001 0 0 0 -0.06925,-0.0718 1.0001,1.0001 0 0 0 -0.07545,-0.0646 1.0001,1.0001 0 0 0 -0.001,-5.1e-4 1.0001,1.0001 0 0 0 -0.08113,-0.0563 1.0001,1.0001 0 0 0 -0.001,-5.1e-4 1.0001,1.0001 0 0 0 -0.01654,-0.009 1.0001,1.0001 0 0 0 -0.0708,-0.0393 1.0001,1.0001 0 0 0 -0.09095,-0.0388 1.0001,1.0001 0 0 0 -0.001,-5.1e-4 1.0001,1.0001 0 0 0 -0.09457,-0.03 1.0001,1.0001 0 0 0 -5.19e-4,0 1.0001,1.0001 0 0 0 -0.02015,-0.004 1.0001,1.0001 0 0 0 -0.246497,-0.0279 h -8.999965 v -5.1e-4 h -5.19e-4 V 32.01408 h 5.19e-4 V 30.0142 Z m 19.999813,0 v 21.99969 h 10.999326 a 1.0001,1.0001 0 0 0 0.567407,-0.1664 1.0001,1.0001 0 0 0 5.19e-4,0 1.0001,1.0001 0 0 0 0.317291,-1.32549 1.0001,1.0001 0 0 0 -5.16e-4,-5.2e-4 1.0001,1.0001 0 0 0 -0.114721,-0.16278 1.0001,1.0001 0 0 0 -5.19e-4,-5.2e-4 1.0001,1.0001 0 0 0 -0.06924,-0.0718 1.0001,1.0001 0 0 0 -0.0646,-0.0553 1.0001,1.0001 0 0 0 -0.01137,-0.01 1.0001,1.0001 0 0 0 -0.08165,-0.0563 1.0001,1.0001 0 0 0 -5.16e-4,-5.1e-4 1.0001,1.0001 0 0 0 -0.08682,-0.0481 1.0001,1.0001 0 0 0 -0.001,-5.2e-4 1.0001,1.0001 0 0 0 -0.09095,-0.0388 1.0001,1.0001 0 0 0 -0.06563,-0.0212 1.0001,1.0001 0 0 0 -0.02997,-0.009 1.0001,1.0001 0 0 0 -5.16e-4,0 1.0001,1.0001 0 0 0 -0.02015,-0.004 1.0001,1.0001 0 0 0 -0.24598,-0.0279 h -9.000485 v -5.1e-4 h -5.15e-4 V 32.01388 h 5.15e-4 V 30.014 Z m 61.014878,19.98793 a 1.0001,1.0001 0 0 0 -0.88057,0.51211 l -0.13436,0.23255 -1.71359,2.96829 a 1.0001,1.0001 0 0 0 -0.0202,0.0362 1.0001607,1.0001607 0 0 0 1.7508,0.96376 l 5.1e-4,-0.002 0.41342,-0.71572 1.43402,-2.48357 a 1.0001,1.0001 0 0 0 0.13539,-0.42219 v -0.17932 a 1.0001,1.0001 0 0 0 -0.98547,-0.91054 z"
       id="path6224"
       inkscape:connector-curvature="0" />
  </g>
</svg>
